<?xml version="1.0" encoding="UTF-8"?> <svg xmlns="http://www.w3.org/2000/svg" width="58" height="46" viewBox="0 0 58 46" fill="none"><path d="M51.7778 45.5001C51.6741 45.1462 51.5704 44.7924 51.4667 44.4324C51.5033 44.4202 51.5338 44.4019 51.5704 44.3897C52.6014 43.981 53.2908 43.2366 53.7179 42.2239C53.7667 42.1019 53.7545 41.986 53.7118 41.864C53.4861 41.2905 53.2603 40.7231 53.0346 40.1496C52.4001 38.5634 51.7656 36.9833 51.1311 35.3971C51.1128 35.3544 51.1006 35.3178 51.0823 35.2568C51.3935 35.2568 51.6985 35.2568 51.9975 35.2568C52.15 35.2568 52.3391 35.214 52.4428 35.2812C52.5465 35.3483 52.5648 35.5435 52.6136 35.6838C53.1139 37.0382 53.6081 38.3926 54.1022 39.747C54.2182 40.0703 54.3097 40.3998 54.4073 40.7231C54.4195 40.7597 54.4317 40.7963 54.4439 40.8451C55.0662 38.9722 55.6885 37.1114 56.3107 35.2568C56.7622 35.2568 57.2015 35.2568 57.6529 35.2568C57.5797 35.4398 57.5126 35.6228 57.4455 35.7997C56.7134 37.6971 55.9935 39.6006 55.2492 41.4979C54.932 42.3093 54.5659 43.1085 54.0656 43.8284C53.5532 44.5666 52.8943 45.1279 52.0219 45.4146C51.9486 45.4391 51.8754 45.4635 51.8022 45.4879C51.7961 45.5001 51.7839 45.5001 51.7778 45.5001Z" fill="white"></path><path d="M19.9681 0C20.2243 0.109815 20.4622 0.207429 20.7002 0.311143C24.0068 1.73264 27.3135 3.16024 30.6262 4.58173C30.7482 4.63054 30.7849 4.69765 30.7849 4.82576C30.7788 6.62551 30.7787 8.42526 30.7787 10.2189C30.7787 10.2738 30.7787 10.3287 30.7787 10.4019C27.1671 10.5972 23.5737 10.7924 19.9681 10.9815C19.9681 7.31491 19.9681 3.67271 19.9681 0Z" fill="white"></path><path d="M20.2853 11.7258C20.6269 11.7014 20.9381 11.677 21.2553 11.6526C21.9325 11.6038 22.6158 11.5489 23.293 11.5001C23.8115 11.4635 24.3362 11.4269 24.8548 11.3903C25.5137 11.3415 26.1787 11.2927 26.8376 11.2377C27.35 11.2011 27.8625 11.1645 28.375 11.1279C29.0522 11.0791 29.7233 11.0425 30.4005 10.9693C30.8153 10.9266 31.2119 11.0059 31.6084 11.0852C33.2373 11.4208 34.8663 11.7441 36.4952 12.0736C37.0748 12.1895 37.6543 12.3115 38.2339 12.4274C38.24 12.4274 38.2461 12.4335 38.2705 12.4457C38.2278 12.464 38.1973 12.4884 38.1607 12.5006C34.122 14.1173 30.0832 15.7341 26.0445 17.3569C25.9712 17.3874 25.9163 17.3935 25.8492 17.3264C24.0129 15.4778 22.1826 13.6354 20.3463 11.7868C20.3219 11.7746 20.3158 11.7624 20.2853 11.7258Z" fill="white"></path><path d="M39.7348 35.2689C40.0947 35.2689 40.4486 35.2689 40.8207 35.2689C40.8451 35.6411 40.8634 36.0193 40.8878 36.3915C40.9 36.3976 40.9122 36.4098 40.9244 36.4159C41.4125 35.574 42.1324 35.1164 43.0963 35.1103C44.0908 35.1042 44.7619 35.5984 45.1462 36.5318C45.1828 36.4769 45.2072 36.4403 45.2316 36.3976C45.6099 35.7997 46.1101 35.3544 46.8117 35.1896C48.1966 34.8602 49.3192 35.5557 49.6547 36.9528C49.7401 37.2944 49.7828 37.6544 49.7889 38.0082C49.8011 39.387 49.795 40.7719 49.795 42.1507C49.795 42.1873 49.7889 42.23 49.7889 42.2727C49.3802 42.2727 48.9775 42.2727 48.5627 42.2727C48.5627 42.2178 48.5627 42.169 48.5627 42.1141C48.5627 40.8146 48.5688 39.5212 48.5566 38.2218C48.5505 37.8923 48.5078 37.5568 48.4224 37.2334C48.2759 36.6721 47.9343 36.2695 47.3303 36.1658C46.7263 36.0621 46.2322 36.2695 45.8417 36.7392C45.5428 37.0931 45.4207 37.5141 45.4146 37.9716C45.4146 39.3443 45.4146 40.717 45.4146 42.0897C45.4146 42.1446 45.4146 42.2056 45.4146 42.2727C45.0059 42.2727 44.5971 42.2727 44.1823 42.2727C44.1823 42.2178 44.1823 42.169 44.1823 42.1141C44.1823 40.7475 44.1823 39.3809 44.1823 38.0082C44.1823 37.7032 44.1335 37.4042 44.0298 37.1175C43.6454 36.001 42.4374 35.9095 41.7358 36.5013C41.2661 36.904 41.0159 37.4164 41.0098 38.0326C41.0037 39.3809 41.0098 40.7353 41.0098 42.0836C41.0098 42.1385 41.0098 42.1995 41.0098 42.2666C40.6011 42.2666 40.1923 42.2666 39.7836 42.2666C39.747 39.9361 39.8202 37.6056 39.7348 35.2689Z" fill="white"></path><path d="M29.8148 42.2666C29.4671 42.2666 29.101 42.2666 28.7167 42.2666C28.6984 41.8701 28.674 41.4674 28.6557 41.0709C28.6435 41.0648 28.6374 41.0647 28.6252 41.0586C28.6007 41.0953 28.5763 41.138 28.558 41.1746C28.1066 41.9189 27.4416 42.3093 26.5936 42.4069C25.0806 42.5839 23.9275 41.6504 23.5004 40.3937C23.0734 39.1369 23.1283 37.8984 23.7506 36.721C24.2142 35.8485 24.9463 35.2995 25.9347 35.1469C26.74 35.0249 27.4965 35.1713 28.1249 35.7265C28.2713 35.8546 28.3872 36.0194 28.5275 36.1841C28.5275 34.7748 28.5275 33.3838 28.5275 31.9745C28.9607 31.9745 29.3756 31.9745 29.7965 31.9745C29.8087 35.4032 29.766 38.8318 29.8148 42.2666ZM28.5458 38.7403C28.5336 38.7403 28.5214 38.7403 28.5092 38.7403C28.5092 38.4475 28.5275 38.1607 28.5092 37.874C28.436 36.7026 27.3318 35.8851 26.1848 36.1475C25.5259 36.3 25.0867 36.7149 24.8182 37.3188C24.4766 38.0875 24.4339 38.8867 24.6169 39.7043C24.7328 40.2289 24.9646 40.6926 25.3978 41.0281C26.4044 41.8152 28.1432 41.4369 28.4726 39.8202C28.5458 39.4663 28.5275 39.1003 28.5458 38.7403Z" fill="white"></path><path d="M17.3569 23.2747C17.3752 22.933 17.3874 22.5853 17.4057 22.2376C17.8023 22.2376 18.1866 22.2376 18.571 22.2376C18.571 25.5259 18.571 28.8143 18.571 32.1087C18.1378 32.1087 17.723 32.1087 17.2898 32.1087C17.2898 30.797 17.2898 29.4853 17.2898 28.1737C17.2776 28.1676 17.2654 28.1615 17.2532 28.1615C17.2288 28.1981 17.2044 28.2347 17.18 28.2713C16.7468 28.9424 16.1184 29.284 15.3375 29.3816C13.8611 29.5647 12.7203 28.6556 12.2749 27.4233C11.8418 26.2275 11.8784 25.0317 12.4152 23.8726C12.8728 22.8842 13.6598 22.2742 14.7457 22.1155C15.667 21.9752 16.4906 22.2009 17.1068 22.9575C17.1861 23.0612 17.2532 23.171 17.3264 23.2808C17.3325 23.2747 17.3447 23.2747 17.3569 23.2747ZM17.3203 25.6967C17.302 25.6967 17.2898 25.6967 17.2715 25.6967C17.2715 25.4039 17.2898 25.1049 17.2715 24.8121C17.1983 23.6957 16.1367 22.8903 15.0386 23.1039C14.3614 23.2381 13.8916 23.6285 13.5988 24.2386C13.306 24.8365 13.2449 25.4771 13.2938 26.1299C13.3243 26.5691 13.4341 26.9962 13.6537 27.3867C14.0808 28.1554 14.8739 28.5336 15.7341 28.3506C16.5333 28.1798 17.0153 27.6551 17.2105 26.8864C17.302 26.5081 17.2837 26.0933 17.3203 25.6967Z" fill="white"></path><path d="M8.14462 42.2727C7.71146 42.2727 7.2966 42.2788 6.88175 42.2666C6.84514 42.2666 6.79633 42.1934 6.77803 42.1446C6.45469 41.2112 6.13744 40.2777 5.8263 39.3443C5.7897 39.2284 5.73479 39.1918 5.61277 39.1918C4.55733 39.1979 3.50188 39.1979 2.44644 39.1918C2.33052 39.1918 2.28171 39.2284 2.24511 39.3382C1.94007 40.2777 1.62892 41.2112 1.32388 42.1507C1.29338 42.2422 1.25677 42.2849 1.15306 42.2788C0.774807 42.2727 0.396554 42.2788 0 42.2788C0.0183025 42.2239 0.0305045 42.1812 0.0427061 42.1385C1.11645 38.9661 2.1963 35.7936 3.27005 32.6212C3.30055 32.5297 3.34326 32.4931 3.44697 32.4931C3.86183 32.4992 4.28279 32.4992 4.69765 32.4931C4.78916 32.4931 4.83186 32.5175 4.86237 32.609C5.8019 35.3727 6.74143 38.1363 7.68706 40.9C7.82128 41.3027 7.96159 41.7053 8.10191 42.108C8.11411 42.1568 8.12632 42.2117 8.14462 42.2727ZM5.50906 38.2157C5.01489 36.666 4.41701 35.1713 4.02655 33.6034C3.6422 35.1774 3.05042 36.6782 2.55625 38.2157C3.54459 38.2157 4.52072 38.2157 5.50906 38.2157Z" fill="white"></path><path d="M10.4446 19.4678C10.4446 19.8094 10.4446 20.1511 10.4446 20.4988C9.10855 20.4988 7.77857 20.4988 6.43638 20.4988C6.43028 20.5659 6.42418 20.6147 6.42418 20.6696C6.42418 21.597 6.42418 22.5243 6.42418 23.4516C6.42418 23.6224 6.42418 23.6224 6.59501 23.6224C7.74196 23.6224 8.88892 23.6224 10.0359 23.6224C10.0908 23.6224 10.1518 23.6224 10.2189 23.6224C10.2189 23.9641 10.2189 24.2935 10.2189 24.6413C8.95603 24.6413 7.69927 24.6413 6.43028 24.6413C6.43028 25.8309 6.43028 27.0023 6.43028 28.1859C7.83958 28.1859 9.23667 28.1859 10.646 28.1859C10.646 28.5397 10.646 28.8753 10.646 29.223C8.82791 29.223 7.00986 29.223 5.18571 29.223C5.18571 25.9774 5.18571 22.7256 5.18571 19.4678C6.94275 19.4678 8.68759 19.4678 10.4446 19.4678Z" fill="white"></path><path d="M16.6919 36.5501C16.6004 36.2939 16.5211 36.0438 16.4296 35.7997C16.3991 35.7204 16.4479 35.696 16.4967 35.6716C16.8993 35.4337 17.3325 35.2873 17.7901 35.1957C18.3696 35.0859 18.9492 35.0615 19.5288 35.1896C20.4927 35.4093 21.0601 36.0255 21.2614 36.9772C21.3285 37.2944 21.3651 37.63 21.3651 37.9594C21.3773 38.899 21.359 39.8385 21.3773 40.7841C21.3834 41.26 21.4384 41.7297 21.475 42.1995C21.475 42.2178 21.475 42.2422 21.475 42.2727C21.0967 42.2727 20.7246 42.2727 20.3402 42.2727C20.3036 41.9799 20.267 41.687 20.2304 41.3576C20.1755 41.4125 20.145 41.443 20.1206 41.4735C19.6691 42.0287 19.0773 42.3276 18.3696 42.413C17.906 42.4679 17.4545 42.4191 17.0274 42.2239C16.1855 41.8457 15.8317 40.9854 15.9049 40.2106C16.0025 39.1247 16.6736 38.5207 17.6314 38.1668C18.3757 37.8923 19.1566 37.8191 19.9497 37.813C19.9986 37.813 20.0535 37.813 20.1023 37.813C20.1877 36.9589 19.8399 36.1048 18.7113 36.0438C17.9975 36.0072 17.3325 36.178 16.6919 36.5501ZM20.1389 38.6915C20.1023 38.6915 20.0596 38.6854 20.023 38.6854C19.7484 38.6915 19.4678 38.6915 19.1932 38.7159C18.7418 38.7586 18.2964 38.844 17.8938 39.0637C17.4728 39.2955 17.2166 39.6372 17.1739 40.1252C17.1007 40.9244 17.5765 41.4735 18.3452 41.4918C19.2176 41.504 19.9436 40.9549 20.1267 40.1313C20.1267 40.1191 20.1389 40.1069 20.1389 40.0947C20.1389 39.6311 20.1389 39.1674 20.1389 38.6915Z" fill="white"></path><path d="M41.986 25.953C41.986 26.3129 42.0348 26.6424 42.1568 26.9596C42.4496 27.7588 43.0414 28.2103 43.8711 28.3445C44.6764 28.4726 45.4634 28.3689 46.226 28.0822C46.2565 28.07 46.2932 28.0578 46.342 28.0394C46.4152 28.3384 46.4823 28.6312 46.5555 28.9241C46.2016 29.0888 45.8417 29.1925 45.4695 29.2535C44.9388 29.345 44.4019 29.3816 43.8589 29.345C42.3581 29.2413 41.2478 28.3384 40.9122 26.8681C40.6377 25.6723 40.778 24.5132 41.4552 23.4638C41.986 22.6341 42.7669 22.1826 43.7552 22.085C44.1945 22.0423 44.6276 22.0789 45.0425 22.2131C45.8966 22.4877 46.4152 23.0978 46.7141 23.9153C46.9337 24.5071 46.9948 25.1294 46.9459 25.7577C46.9337 25.953 46.9276 25.953 46.7385 25.953C45.2255 25.953 43.7125 25.953 42.1995 25.953C42.1324 25.953 42.0653 25.953 41.986 25.953ZM45.7685 25.05C45.7319 24.7938 45.7136 24.5498 45.6587 24.3118C45.3414 23.0368 43.8894 22.5365 42.8645 23.354C42.4313 23.7018 42.1995 24.1715 42.0714 24.7023C42.0409 24.8121 42.0287 24.928 42.0043 25.0561C43.2549 25.05 44.4873 25.05 45.7685 25.05Z" fill="white"></path><path d="M37.2883 41.083C37.3615 41.382 37.4286 41.6687 37.5019 41.9799C37.3066 42.047 37.1114 42.1263 36.9101 42.1812C36.0133 42.4191 35.0981 42.5106 34.1891 42.291C32.9384 41.9921 32.1514 41.1868 31.8586 39.9361C31.5779 38.7281 31.7122 37.5629 32.3955 36.5074C32.9262 35.6777 33.7071 35.2262 34.6955 35.1286C35.1347 35.0859 35.5679 35.1225 35.9828 35.2567C36.8369 35.5313 37.3554 36.1414 37.6544 36.9589C37.874 37.5568 37.935 38.1729 37.8862 38.8013C37.874 38.9966 37.8679 38.9966 37.6788 38.9966C36.1658 38.9966 34.6528 38.9966 33.1398 38.9966C33.0726 38.9966 33.0116 38.9966 32.9323 38.9966C32.9323 39.3565 32.9811 39.686 33.1032 40.0093C33.396 40.8085 33.9878 41.26 34.8175 41.3942C35.6228 41.5223 36.4098 41.4186 37.1724 41.1319C37.2029 41.1074 37.2395 41.0952 37.2883 41.083ZM36.721 38.0814C36.6843 37.8252 36.666 37.5812 36.6111 37.3493C36.2939 36.0682 34.8297 35.5618 33.8109 36.3854C33.3777 36.7331 33.1459 37.2029 33.0177 37.7337C32.9933 37.8435 32.975 37.9594 32.9567 38.0814C34.2074 38.0814 35.4398 38.0814 36.721 38.0814Z" fill="white"></path><path d="M32.9262 22.2376C33.2618 22.2376 33.6339 22.2376 34.0061 22.2376C34.0305 22.6219 34.0549 23.0002 34.0793 23.4089C34.1159 23.3662 34.1403 23.3479 34.1525 23.3235C34.6101 22.5853 35.2751 22.1827 36.1353 22.0911C36.9223 22.0057 37.6178 22.2193 38.1791 22.7927C38.6 23.2259 38.7952 23.7689 38.8684 24.3546C38.9051 24.6657 38.9173 24.9768 38.9234 25.288C38.9295 26.5509 38.9234 27.8137 38.9234 29.0705C38.9234 29.1193 38.9234 29.1742 38.9234 29.2291C38.4963 29.2291 38.0875 29.2291 37.6544 29.2291C37.6544 29.1681 37.6544 29.1132 37.6544 29.0583C37.6544 27.7771 37.6605 26.502 37.6483 25.2209C37.6483 24.9158 37.6178 24.6047 37.5385 24.3118C37.2517 23.2137 36.0987 22.7683 35.1164 23.3723C34.5002 23.7567 34.2074 24.3301 34.2074 25.05C34.2013 26.38 34.2074 27.7161 34.2074 29.0461C34.2074 29.101 34.2074 29.162 34.2074 29.223C33.7864 29.223 33.3777 29.223 32.9262 29.223C32.9262 26.9047 32.9262 24.5742 32.9262 22.2376Z" fill="white"></path><path d="M26.8803 29.2352C26.5142 29.2352 26.1482 29.2352 25.776 29.2352C25.7516 28.857 25.7272 28.4848 25.7028 28.1066C25.6906 28.1005 25.6845 28.1005 25.6723 28.0944C25.6479 28.131 25.6174 28.1676 25.593 28.2042C24.8182 29.3755 23.3723 29.644 22.3291 29.1925C21.658 28.8997 21.2919 28.3506 21.0967 27.6673C20.9686 27.2341 20.932 26.7888 20.932 26.3373C20.932 25.0073 20.932 23.6835 20.932 22.3535C20.932 22.3169 20.9381 22.2742 20.9381 22.2315C21.359 22.2315 21.7678 22.2315 22.1948 22.2315C22.1948 22.2864 22.1948 22.3352 22.1948 22.3901C22.1948 23.6591 22.1887 24.9219 22.201 26.1909C22.201 26.5081 22.2376 26.8315 22.3108 27.1426C22.5487 28.1798 23.4882 28.6434 24.4644 28.1981C25.1843 27.8686 25.5686 27.2952 25.5747 26.4898C25.5808 25.1294 25.5747 23.775 25.5747 22.4145C25.5747 22.3596 25.5747 22.2986 25.5747 22.2376C25.9957 22.2376 26.4105 22.2376 26.8315 22.2376C26.8681 24.562 26.7949 26.8925 26.8803 29.2352Z" fill="white"></path><path d="M49.1423 23.1954C48.7762 23.1954 48.4285 23.1954 48.0685 23.1954C48.0685 22.872 48.0685 22.5609 48.0685 22.2376C48.4163 22.2376 48.7701 22.2376 49.1362 22.2376C49.1362 21.6702 49.1362 21.115 49.1362 20.5537C49.551 20.4439 49.9598 20.3341 50.3807 20.2182C50.3807 20.8954 50.3807 21.5543 50.3807 22.2254C50.9908 22.2254 51.5887 22.2254 52.1927 22.2254C52.1927 22.5487 52.1927 22.8598 52.1927 23.1954C51.5887 23.1954 50.9908 23.1954 50.3807 23.1954C50.3807 23.2625 50.3807 23.3052 50.3807 23.354C50.3807 24.5437 50.3746 25.7394 50.3868 26.9291C50.3868 27.167 50.4112 27.405 50.46 27.6307C50.5699 28.1188 50.8688 28.3445 51.363 28.3384C51.5643 28.3323 51.7656 28.3018 51.9669 28.2774C52.0036 28.2713 52.0341 28.2713 52.0829 28.2652C52.0951 28.4604 52.1073 28.6495 52.1195 28.8326C52.1195 28.8631 52.1195 28.8936 52.1195 28.9241C52.1256 29.2169 52.1317 29.223 51.8388 29.284C51.3874 29.3755 50.9298 29.4121 50.4783 29.3084C49.7889 29.1559 49.3375 28.6678 49.2216 27.9357C49.1728 27.6368 49.1484 27.3318 49.1423 27.0328C49.1362 25.8127 49.1362 24.5864 49.1362 23.3662C49.1423 23.3113 49.1423 23.2625 49.1423 23.1954Z" fill="white"></path><path d="M14.703 35.4947C14.6054 35.818 14.5139 36.1353 14.4285 36.4281C14.154 36.3488 13.8855 36.2512 13.6171 36.1963C13.1534 36.1048 12.6836 36.1048 12.22 36.2268C11.5611 36.3976 11.0608 36.7881 10.768 37.3981C10.3287 38.3133 10.3165 39.2528 10.7741 40.1679C11.1523 40.9183 11.8051 41.3088 12.6409 41.3881C13.2327 41.443 13.794 41.3393 14.337 41.1135C14.3736 41.1013 14.4102 41.083 14.459 41.0647C14.5322 41.3759 14.5993 41.687 14.6786 42.0287C14.4285 42.108 14.1784 42.2056 13.9221 42.2666C13.1412 42.4496 12.3542 42.4923 11.5733 42.2727C10.3226 41.9189 9.56611 41.0769 9.27327 39.8202C9.07804 38.9844 9.12075 38.1485 9.44409 37.3493C9.92606 36.1475 10.8412 35.4642 12.0919 35.2262C12.9216 35.0676 13.733 35.1408 14.5261 35.4337C14.5627 35.4459 14.5993 35.4642 14.6359 35.4825C14.6603 35.4703 14.6725 35.4825 14.703 35.4947Z" fill="white"></path><path d="M29.2596 22.2315C29.6806 22.2315 30.0893 22.2315 30.5042 22.2315C30.5042 24.562 30.5042 26.8925 30.5042 29.2291C30.0954 29.2291 29.6806 29.2291 29.2596 29.2291C29.2596 26.9047 29.2596 24.5742 29.2596 22.2315Z" fill="white"></path><path d="M30.6628 20.2426C30.6628 20.6879 30.3212 21.0113 29.8514 21.0052C29.4182 20.9991 29.0827 20.6574 29.0888 20.2182C29.0949 19.7728 29.4365 19.4312 29.888 19.4312C30.3456 19.4312 30.6689 19.7667 30.6628 20.2426Z" fill="white"></path><path d="M31.6511 2.39153C31.9623 2.57456 32.2551 2.74538 32.5419 2.91621C32.5663 2.92841 32.5846 2.96501 32.5846 2.98942C32.5846 3.27615 32.5846 3.55679 32.5846 3.86184C32.2795 3.73372 31.9867 3.6117 31.7 3.48968C31.6756 3.47748 31.6511 3.42868 31.6511 3.39817C31.6511 3.07483 31.6511 2.74538 31.6511 2.39153Z" fill="white"></path><path d="M31.9318 6.19235C31.6206 6.06424 31.3339 5.94222 31.0472 5.8202C31.0289 5.8141 31.0045 5.77139 31.0045 5.74699C31.0045 5.41755 31.0045 5.0942 31.0045 4.73425C31.1814 4.83797 31.3339 4.92338 31.4864 5.01489C31.6329 5.1003 31.8342 5.16131 31.9074 5.28943C31.9806 5.41755 31.9318 5.61887 31.9318 5.7897C31.9318 5.91782 31.9318 6.03983 31.9318 6.19235Z" fill="white"></path><path d="M29.8697 2.8857C30.071 3.00161 30.248 3.10533 30.4249 3.20904C30.5469 3.28225 30.7116 3.33716 30.7787 3.44698C30.8397 3.55069 30.797 3.72151 30.797 3.86183C30.797 4.01435 30.797 4.16687 30.797 4.3438C30.5835 4.25229 30.3822 4.17298 30.1809 4.08756C29.8697 3.95945 29.8697 3.95945 29.8697 3.6239C29.8697 3.38597 29.8697 3.15414 29.8697 2.8857Z" fill="white"></path><path d="M30.6994 2.24511C30.9252 2.37933 31.1326 2.49524 31.3339 2.61726C31.3583 2.62946 31.3827 2.67217 31.3827 2.70267C31.3888 2.8979 31.3827 3.09313 31.3827 3.32496C31.1509 3.22734 30.9435 3.14193 30.7299 3.05042C30.7116 3.04432 30.6994 3.00161 30.6994 2.97111C30.6994 2.73928 30.6994 2.50745 30.6994 2.24511Z" fill="white"></path><path d="M31.0655 3.68491C31.2912 3.81913 31.4925 3.93504 31.6878 4.05096C31.7122 4.06926 31.7366 4.11197 31.7427 4.14247C31.7488 4.3377 31.7427 4.53903 31.7427 4.75866C31.523 4.66714 31.3156 4.58173 31.1082 4.49022C31.0899 4.48412 31.0655 4.44141 31.0655 4.41701C31.0655 4.18518 31.0655 3.94725 31.0655 3.68491Z" fill="white"></path><path d="M30.858 1.22627C31.0411 1.32998 31.1997 1.42149 31.3583 1.51911C31.3766 1.53131 31.3949 1.56791 31.3949 1.59232C31.401 1.74484 31.3949 1.89736 31.3949 2.06818C31.218 1.99497 31.0594 1.93396 30.9007 1.86075C30.8824 1.84855 30.858 1.81805 30.858 1.79365C30.858 1.61672 30.858 1.4337 30.858 1.22627Z" fill="white"></path></svg> 